<svg width="37" height="37" viewBox="0 0 37 37" fill="none" xmlns="http://www.w3.org/2000/svg">
<g filter="url(#filter0_d_867_840)">
<circle cx="18.5001" cy="17.4274" r="17.4274" fill="white"/>
</g>
<path d="M15.8581 11.7446L15.5027 10.9451C15.2704 10.4223 15.1542 10.1609 14.9804 9.96082C14.7627 9.71012 14.4789 9.52567 14.1613 9.42851C13.908 9.35098 13.6219 9.35098 13.0498 9.35098C12.2129 9.35098 11.7944 9.35098 11.4431 9.51185C11.0293 9.70136 10.6557 10.1129 10.5068 10.5429C10.3804 10.908 10.4166 11.2832 10.489 12.0336C11.2597 20.0211 15.6388 24.4002 23.6262 25.171C24.3767 25.2433 24.7519 25.2795 25.1169 25.1531C25.5471 25.0043 25.9585 24.6306 26.1481 24.2168C26.3089 23.8655 26.3089 23.447 26.3089 22.6101C26.3089 22.038 26.3089 21.752 26.2314 21.4986C26.1343 21.1811 25.9498 20.8973 25.6991 20.6794C25.4991 20.5058 25.2377 20.3895 24.7149 20.1572L23.9153 19.8018C23.3491 19.5502 23.066 19.4244 22.7784 19.397C22.503 19.3708 22.2255 19.4095 21.9678 19.5098C21.6985 19.6147 21.4606 19.813 20.9845 20.2097C20.5108 20.6044 20.2739 20.8019 19.9844 20.9076C19.7278 21.0014 19.3885 21.0361 19.1183 20.9963C18.8134 20.9514 18.5799 20.8266 18.113 20.5771C16.6603 19.8007 15.8592 18.9996 15.0829 17.5469C14.8333 17.08 14.7086 16.8466 14.6637 16.5416C14.6238 16.2714 14.6586 15.9322 14.7523 15.6755C14.858 15.3861 15.0555 15.1492 15.4503 14.6754C15.8469 14.1994 16.0453 13.9614 16.1501 13.6921C16.2505 13.4345 16.2891 13.1569 16.2629 12.8816C16.2355 12.5939 16.1097 12.3108 15.8581 11.7446Z" stroke="#25F325" stroke-width="1.3203" stroke-linecap="round"/>
<defs>
<filter id="filter0_d_867_840" x="0.000211323" y="0" width="36.9996" height="36.9991" filterUnits="userSpaceOnUse" color-interpolation-filters="sRGB">
<feFlood flood-opacity="0" result="BackgroundImageFix"/>
<feColorMatrix in="SourceAlpha" type="matrix" values="0 0 0 0 0 0 0 0 0 0 0 0 0 0 0 0 0 0 127 0" result="hardAlpha"/>
<feOffset dy="1.06961"/>
<feGaussianBlur stdDeviation="0.534807"/>
<feComposite in2="hardAlpha" operator="out"/>
<feColorMatrix type="matrix" values="0 0 0 0 0 0 0 0 0 0 0 0 0 0 0 0 0 0 0.25 0"/>
<feBlend mode="normal" in2="BackgroundImageFix" result="effect1_dropShadow_867_840"/>
<feBlend mode="normal" in="SourceGraphic" in2="effect1_dropShadow_867_840" result="shape"/>
</filter>
</defs>
</svg>
