<svg width="112" height="112" viewBox="0 0 112 112" fill="none" xmlns="http://www.w3.org/2000/svg">
<g filter="url(#filter0_d_867_856)">
<circle cx="56" cy="52.7536" r="52.7536" fill="white"/>
</g>
<path d="M48.0027 35.5517L46.927 33.1314C46.2236 31.5489 45.8719 30.7576 45.346 30.1521C44.6869 29.3932 43.8277 28.8348 42.8665 28.5407C42.0995 28.306 41.2336 28.306 39.5018 28.306C36.9685 28.306 35.7018 28.306 34.6384 28.793C33.3859 29.3667 32.2547 30.6123 31.804 31.9142C31.4214 33.0193 31.531 34.1551 31.7501 36.4266C34.0832 60.6049 47.339 73.8606 71.5172 76.1938C73.7888 76.4129 74.9247 76.5224 76.0296 76.1399C77.3317 75.6892 78.5772 74.5581 79.151 73.3054C79.6377 72.2422 79.6377 70.9753 79.6377 68.442C79.6377 66.7103 79.6377 65.8445 79.4032 65.0775C79.1091 64.1163 78.5507 63.2571 77.7917 62.5978C77.1864 62.072 76.3951 61.7202 74.8125 61.0168L72.3921 59.9413C70.6783 59.1796 69.8213 58.7987 68.9507 58.7158C68.1172 58.6365 67.277 58.7535 66.4969 59.0573C65.6818 59.3746 64.9616 59.9749 63.5206 61.1758C62.0865 62.3707 61.3695 62.9683 60.4933 63.2884C59.7164 63.5724 58.6895 63.6774 57.8715 63.5569C56.9484 63.4209 56.2418 63.0431 54.8283 62.2879C50.4311 59.9378 48.0061 57.5129 45.6561 53.1156C44.9007 51.7021 44.5231 50.9955 44.3871 50.0725C44.2665 49.2545 44.3716 48.2275 44.6554 47.4507C44.9755 46.5745 45.5731 45.8574 46.7683 44.4232C47.9689 42.9824 48.5692 42.262 48.8866 41.4469C49.1904 40.6669 49.3073 39.8266 49.2281 38.9933C49.1452 38.1225 48.7644 37.2656 48.0027 35.5517Z" stroke="#25F325" stroke-width="3.98162" stroke-linecap="round"/>
<defs>
<filter id="filter0_d_867_856" x="-2.78346e-05" y="0" width="112" height="112" filterUnits="userSpaceOnUse" color-interpolation-filters="sRGB">
<feFlood flood-opacity="0" result="BackgroundImageFix"/>
<feColorMatrix in="SourceAlpha" type="matrix" values="0 0 0 0 0 0 0 0 0 0 0 0 0 0 0 0 0 0 127 0" result="hardAlpha"/>
<feOffset dy="3.22561"/>
<feGaussianBlur stdDeviation="1.61281"/>
<feComposite in2="hardAlpha" operator="out"/>
<feColorMatrix type="matrix" values="0 0 0 0 0 0 0 0 0 0 0 0 0 0 0 0 0 0 0.25 0"/>
<feBlend mode="normal" in2="BackgroundImageFix" result="effect1_dropShadow_867_856"/>
<feBlend mode="normal" in="SourceGraphic" in2="effect1_dropShadow_867_856" result="shape"/>
</filter>
</defs>
</svg>
