<svg width="112" height="112" viewBox="0 0 112 112" fill="none" xmlns="http://www.w3.org/2000/svg">
<g filter="url(#filter0_d_867_851)">
<circle cx="56" cy="52.7536" r="52.7536" fill="#2BC42B"/>
</g>
<path d="M56 77.1C69.4468 77.1 80.3478 66.199 80.3478 52.7521C80.3478 39.3052 69.4468 28.4043 56 28.4043C42.553 28.4043 31.6521 39.3052 31.6521 52.7521C31.6521 56.1095 32.3316 59.308 33.5606 62.2178C34.2398 63.8258 34.5794 64.63 34.6214 65.2377C34.6635 65.8454 34.4846 66.5138 34.1269 67.8507L31.6521 77.1L40.9013 74.6253C42.2383 74.2676 42.9068 74.0886 43.5144 74.1307C44.1221 74.1726 44.9262 74.5123 46.5344 75.1916C49.4442 76.4204 52.6426 77.1 56 77.1Z" stroke="white" stroke-width="3.62882" stroke-linejoin="round"/>
<path d="M47.6935 53.6665L49.814 51.0328C50.7078 49.9228 51.8125 48.8895 51.8992 47.4115C51.9209 47.0381 51.6584 45.3621 51.133 42.0101C50.9265 40.6928 49.6966 40.5739 48.6313 40.5739C47.243 40.5739 46.5489 40.5739 45.8596 40.8888C44.9884 41.2867 44.094 42.4057 43.8977 43.3431C43.7424 44.0848 43.8578 44.5959 44.0886 45.6181C45.069 49.9595 47.3688 54.2472 50.935 57.8134C54.5013 61.3796 58.7889 63.6795 63.1304 64.6598C64.1525 64.8906 64.6636 65.006 65.4054 64.8507C66.3428 64.6544 67.4616 63.7601 67.8597 62.8887C68.1745 62.1994 68.1745 61.5055 68.1745 60.1172C68.1745 59.0518 68.0557 57.8219 66.7382 57.6155C63.3863 57.0901 61.7104 56.8276 61.3369 56.8493C59.859 56.9359 58.8257 58.0406 57.7157 58.9344L55.082 61.0549" stroke="white" stroke-width="3.62882"/>
<defs>
<filter id="filter0_d_867_851" x="-2.78346e-05" y="0" width="112" height="112" filterUnits="userSpaceOnUse" color-interpolation-filters="sRGB">
<feFlood flood-opacity="0" result="BackgroundImageFix"/>
<feColorMatrix in="SourceAlpha" type="matrix" values="0 0 0 0 0 0 0 0 0 0 0 0 0 0 0 0 0 0 127 0" result="hardAlpha"/>
<feOffset dy="3.22561"/>
<feGaussianBlur stdDeviation="1.61281"/>
<feComposite in2="hardAlpha" operator="out"/>
<feColorMatrix type="matrix" values="0 0 0 0 0 0 0 0 0 0 0 0 0 0 0 0 0 0 0.25 0"/>
<feBlend mode="normal" in2="BackgroundImageFix" result="effect1_dropShadow_867_851"/>
<feBlend mode="normal" in="SourceGraphic" in2="effect1_dropShadow_867_851" result="shape"/>
</filter>
</defs>
</svg>
