<svg width="37" height="37" viewBox="0 0 37 37" fill="none" xmlns="http://www.w3.org/2000/svg">
<g filter="url(#filter0_d_867_835)">
<circle cx="18.5001" cy="17.4274" r="17.4274" fill="#2BC42B"/>
</g>
<path d="M18.4999 25.4711C22.9421 25.4711 26.5433 21.8699 26.5433 17.4277C26.5433 12.9854 22.9421 9.38427 18.4999 9.38427C14.0576 9.38427 10.4564 12.9854 10.4564 17.4277C10.4564 18.5368 10.6809 19.5935 11.0869 20.5548C11.3113 21.0859 11.4235 21.3516 11.4374 21.5524C11.4513 21.7531 11.3922 21.9739 11.274 22.4156L10.4564 25.4711L13.512 24.6536C13.9536 24.5354 14.1745 24.4763 14.3752 24.4902C14.576 24.5041 14.8416 24.6163 15.3729 24.8407C16.3341 25.2466 17.3908 25.4711 18.4999 25.4711Z" stroke="white" stroke-width="1.20332" stroke-linejoin="round"/>
<path d="M15.7558 17.7299L16.4563 16.8598C16.7516 16.4931 17.1165 16.1518 17.1451 15.6635C17.1523 15.5402 17.0656 14.9865 16.892 13.8791C16.8238 13.444 16.4175 13.4047 16.0656 13.4047C15.607 13.4047 15.3776 13.4047 15.1499 13.5087C14.8621 13.6402 14.5667 14.0098 14.5018 14.3195C14.4505 14.5645 14.4886 14.7334 14.5649 15.071C14.8887 16.5053 15.6485 17.9217 16.8266 19.0999C18.0048 20.278 19.4212 21.0378 20.8554 21.3616C21.1931 21.4378 21.3619 21.476 21.607 21.4246C21.9167 21.3598 22.2863 21.0644 22.4178 20.7765C22.5218 20.5488 22.5218 20.3196 22.5218 19.8609C22.5218 19.5089 22.4825 19.1027 22.0473 19.0345C20.94 18.8609 20.3863 18.7742 20.2629 18.7813C19.7747 18.81 19.4333 19.1749 19.0666 19.4702L18.1966 20.1707" stroke="white" stroke-width="1.20332"/>
<defs>
<filter id="filter0_d_867_835" x="0.000211323" y="0" width="36.9996" height="36.9991" filterUnits="userSpaceOnUse" color-interpolation-filters="sRGB">
<feFlood flood-opacity="0" result="BackgroundImageFix"/>
<feColorMatrix in="SourceAlpha" type="matrix" values="0 0 0 0 0 0 0 0 0 0 0 0 0 0 0 0 0 0 127 0" result="hardAlpha"/>
<feOffset dy="1.06961"/>
<feGaussianBlur stdDeviation="0.534807"/>
<feComposite in2="hardAlpha" operator="out"/>
<feColorMatrix type="matrix" values="0 0 0 0 0 0 0 0 0 0 0 0 0 0 0 0 0 0 0.25 0"/>
<feBlend mode="normal" in2="BackgroundImageFix" result="effect1_dropShadow_867_835"/>
<feBlend mode="normal" in="SourceGraphic" in2="effect1_dropShadow_867_835" result="shape"/>
</filter>
</defs>
</svg>
