<svg width="42" height="42" viewBox="0 0 42 42" fill="none" xmlns="http://www.w3.org/2000/svg">
<path d="M32.7397 6.11712C29.4282 4.46947 25.3759 3.50029 20.9994 3.50029C16.6228 3.50029 12.5705 4.46947 9.25896 6.11712C7.635 6.92513 6.82302 7.32913 6.03624 8.59938C5.24944 9.86965 5.24944 11.0996 5.24944 13.5595V19.6652C5.24944 29.6111 13.1985 35.1409 17.8021 37.5093C19.0861 38.1699 19.728 38.5002 20.9994 38.5002C22.2708 38.5002 22.9126 38.1699 24.1964 37.5093C28.8001 35.1409 36.7493 29.6111 36.7493 19.6652V13.5595C36.7493 11.0996 36.7493 9.86967 35.9625 8.59938C35.1757 7.32912 34.3637 6.92513 32.7397 6.11712Z" stroke="#13D1C3" stroke-width="3" stroke-linecap="round" stroke-linejoin="round"/>
<path d="M17.4995 17.5002V14.8752C17.4995 12.9422 19.0664 11.3752 20.9994 11.3752C22.9325 11.3752 24.4994 12.9422 24.4994 14.8752V17.5002" stroke="#13D1C3" stroke-width="2.58303" stroke-linecap="round" stroke-linejoin="round"/>
<path d="M24.4995 17.5005H17.4995C16.0497 17.5005 14.8745 18.6758 14.8745 20.1254V22.7504C14.8745 24.2001 16.0497 25.3754 17.4995 25.3754H24.4995C25.9492 25.3754 27.1244 24.2001 27.1244 22.7504V20.1254C27.1244 18.6758 25.9492 17.5005 24.4995 17.5005Z" stroke="#13D1C3" stroke-width="2.58303" stroke-linecap="round" stroke-linejoin="round"/>
</svg>
