<svg width="42" height="42" viewBox="0 0 42 42" fill="none" xmlns="http://www.w3.org/2000/svg">
<path d="M35 15.0234V23.6254C35 30.2249 35 33.5249 32.9497 35.575C31.5355 36.9894 29.5265 37.4281 26.25 37.5641M7.00008 15.0234V23.6254C7.00008 30.2249 7.00008 33.5249 9.05032 35.575C10.9107 37.4354 13.7999 37.6078 19.2497 37.6237C20.2162 37.6265 21 36.8418 21 35.8753V30.6253" stroke="#13D1C3" stroke-width="2.58303" stroke-linecap="round" stroke-linejoin="round"/>
<path d="M38.4997 18.3745L30.8993 11.0867C26.2326 6.61197 23.8993 4.37462 20.9997 4.37462C18.1002 4.37462 15.7669 6.61197 11.1003 11.0867L3.49979 18.3745" stroke="#13D1C3" stroke-width="2.58303" stroke-linecap="round"/>
<path d="M24.5015 15.7498V20.1247M17.5016 20.1247V15.7498M14.8845 21.6647C14.8158 20.8336 15.5329 20.1247 16.442 20.1247H25.568C26.4771 20.1247 27.1941 20.8336 27.1255 21.6647L26.9377 23.9352C26.8028 25.5674 26.2123 27.1405 25.2231 28.503L24.6097 29.3477C24.0306 30.1454 23.0545 30.6247 22.0092 30.6247H20.0007C18.9555 30.6247 17.9795 30.1454 17.4002 29.3477L16.7869 28.503C15.7975 27.1405 15.207 25.5674 15.0722 23.9352L14.8845 21.6647Z" stroke="#13D1C3" stroke-width="2.58303" stroke-linecap="round"/>
</svg>
