<svg width="42" height="42" viewBox="0 0 42 42" fill="none" xmlns="http://www.w3.org/2000/svg">
<path d="M19.2501 8.75023H31.5001" stroke="#13D1C3" stroke-width="2.58303" stroke-linecap="round" stroke-linejoin="round"/>
<path d="M17.5 17.4995L25.3749 25.3744" stroke="#13D1C3" stroke-width="2.58303" stroke-linecap="round" stroke-linejoin="round"/>
<path d="M8.74973 19.2501V31.5001" stroke="#13D1C3" stroke-width="2.58303" stroke-linecap="round" stroke-linejoin="round"/>
<path d="M11.2775 19.0558C15.5731 19.0558 19.0553 15.5736 19.0553 11.278C19.0553 6.9825 15.5731 3.50029 11.2775 3.50029C6.98201 3.50029 3.49979 6.9825 3.49979 11.278C3.49979 15.5736 6.98201 19.0558 11.2775 19.0558Z" stroke="#13D1C3" stroke-width="2.58303"/>
<path d="M8.74992 38.4996C10.6829 38.4996 12.2499 36.9326 12.2499 34.9996C12.2499 33.0666 10.6829 31.4996 8.74992 31.4996C6.81694 31.4996 5.24994 33.0666 5.24994 34.9996C5.24994 36.9326 6.81694 38.4996 8.74992 38.4996Z" stroke="#13D1C3" stroke-width="2.58303"/>
<path d="M28 31.5C29.933 31.5 31.5 29.933 31.5 28C31.5 26.067 29.933 24.5 28 24.5C26.067 24.5 24.5 26.067 24.5 28C24.5 29.933 26.067 31.5 28 31.5Z" stroke="#13D1C3" stroke-width="2.58303"/>
<path d="M35.0001 12.2499C36.9331 12.2499 38.5001 10.6829 38.5001 8.74992C38.5001 6.81694 36.9331 5.24994 35.0001 5.24994C33.0671 5.24994 31.5001 6.81694 31.5001 8.74992C31.5001 10.6829 33.0671 12.2499 35.0001 12.2499Z" stroke="#13D1C3" stroke-width="2.58303"/>
</svg>
