<svg width="192" height="57" viewBox="0 0 192 57" fill="none" xmlns="http://www.w3.org/2000/svg">
<path fill-rule="evenodd" clip-rule="evenodd" d="M40.5774 56.5321L9.92619 56.5297V56.537C8.42139 56.537 7.06707 55.8045 6.0822 54.637C5.13573 53.5158 4.53485 51.9693 4.48607 50.2838V49.9621H4.47259V41.7407H4.48815V39.8091H4.47155C4.47155 37.6495 4.45287 35.4778 4.47259 33.3207C4.46843 31.5511 5.08488 29.9424 6.07909 28.7725L6.08739 28.7639L6.07909 28.7542C7.07433 27.5855 8.44838 26.8615 9.96667 26.8615C10.1078 26.8615 10.2458 26.8689 10.3818 26.8859L10.9214 26.8908C12.2187 23.6222 14.2061 20.8107 16.6636 18.7194C19.6233 16.2003 23.2577 14.7135 27.1774 14.7135C27.5147 14.7135 27.8551 14.7391 28.1945 14.7671L28.841 14.3784C29.2541 14.0895 29.6972 13.8641 30.1601 13.7117L30.4621 13.6264C30.8595 13.5192 31.256 13.4631 31.6441 13.4631C32.2668 13.4631 32.8905 13.5996 33.4924 13.8531L33.4955 13.8421C34.0061 14.0566 34.497 14.3771 34.9495 14.7842C37.903 17.3032 40.8441 19.8394 43.7904 22.3694L43.9617 22.5254L43.969 22.5132C44.6643 23.1067 45.2434 23.9013 45.645 24.8288C45.7062 24.9738 45.7623 25.1188 45.81 25.2663C46.0902 26.045 46.2459 26.881 46.2459 27.7366C46.166 35.1585 46.2448 42.6486 46.2448 50.0766C46.2448 51.8596 45.6294 53.4732 44.6331 54.6431C43.6389 55.8106 42.2628 56.5345 40.7445 56.5345L40.5754 56.5297L40.5774 56.5321ZM40.648 51.6817L9.96978 51.6866C9.21426 51.7158 8.60093 50.9663 8.60093 50.0791V33.3219C8.60093 32.4335 9.21426 31.7132 9.96978 31.7132L12.803 31.7425C13.6622 31.7278 14.0099 30.8589 14.0483 30.7577L14.0545 30.7395C15.8582 24.2523 21.0524 19.5652 27.1795 19.5652C27.7233 19.5652 28.2277 19.6456 28.7539 19.6627C28.9521 19.6627 29.1399 19.6127 29.3101 19.5249L30.9343 18.55C31.1418 18.4013 31.3857 18.316 31.6462 18.316C31.9772 18.316 32.2813 18.4537 32.519 18.6853C35.5234 21.2653 38.5174 23.9135 41.5519 26.4374C41.8944 26.7299 42.1175 27.204 42.1175 27.739L42.1165 50.0791C42.1165 50.9663 41.5032 51.6866 40.7476 51.6866L40.6491 51.6817H40.648Z" fill="white"/>
<path fill-rule="evenodd" clip-rule="evenodd" d="M30.4518 45.1018C30.0004 43.459 29.5396 41.8211 29.001 40.1527C28.0368 37.1644 29.468 38.7219 30.4809 36.0883C31.9379 32.2945 29.6434 28.4787 26.558 28.3629C23.2775 28.2411 20.7412 32.208 22.2937 35.975C23.4062 38.6744 24.7138 37.1583 23.7508 40.2441C23.2755 41.7663 22.8375 43.4432 22.3684 45.0884C22.3363 45.2091 22.358 45.3236 22.4961 45.3236L30.32 45.3261C30.3978 45.3285 30.4622 45.2603 30.4622 45.1677C30.4622 45.1457 30.458 45.125 30.4508 45.1055L30.4518 45.1018Z" fill="#13D1C3"/>
<path d="M54.2934 24.7145V22.4706H64.8654V24.7145H60.9245V35.343H58.2343V24.7145H54.2934Z" fill="white"/>
<path d="M65.5983 35.343V22.4706H70.6768C71.649 22.4706 72.4786 22.6445 73.1658 22.9923C73.8572 23.3359 74.3831 23.824 74.7435 24.4568C75.108 25.0853 75.2903 25.8249 75.2903 26.6755C75.2903 27.5303 75.1059 28.2657 74.7372 28.8817C74.3684 29.4934 73.8342 29.9627 73.1344 30.2896C72.4388 30.6164 71.5966 30.7798 70.6077 30.7798H67.2073V28.5925H70.1677C70.6873 28.5925 71.1189 28.5213 71.4625 28.3788C71.8061 28.2364 72.0617 28.0227 72.2293 27.7377C72.4011 27.4528 72.487 27.0987 72.487 26.6755C72.487 26.2481 72.4011 25.8877 72.2293 25.5944C72.0617 25.3011 71.804 25.079 71.4562 24.9282C71.1126 24.7731 70.6789 24.6956 70.1551 24.6956H68.3198V35.343H65.5983ZM72.5499 29.485L75.7491 35.343H72.7447L69.6146 29.485H72.5499Z" fill="white"/>
<path d="M84.5773 22.4706H87.2989V30.8301C87.2989 31.7687 87.0747 32.59 86.6264 33.294C86.1822 33.9979 85.5599 34.5469 84.7596 34.9407C83.9593 35.3304 83.0269 35.5253 81.9626 35.5253C80.8941 35.5253 79.9597 35.3304 79.1594 34.9407C78.359 34.5469 77.7368 33.9979 77.2926 33.294C76.8484 32.59 76.6264 31.7687 76.6264 30.8301V22.4706H79.3479V30.5976C79.3479 31.0878 79.4548 31.5236 79.6685 31.9049C79.8864 32.2862 80.1923 32.5858 80.5861 32.8037C80.98 33.0216 81.4388 33.1306 81.9626 33.1306C82.4906 33.1306 82.9494 33.0216 83.3391 32.8037C83.733 32.5858 84.0368 32.2862 84.2505 31.9049C84.4684 31.5236 84.5773 31.0878 84.5773 30.5976V22.4706Z" fill="white"/>
<path d="M94.372 26.1727C94.3218 25.6656 94.106 25.2718 93.7247 24.991C93.3433 24.7103 92.8258 24.5699 92.1722 24.5699C91.728 24.5699 91.353 24.6327 91.0471 24.7585C90.7412 24.88 90.5066 25.0497 90.3431 25.2676C90.1839 25.4855 90.1043 25.7327 90.1043 26.0092C90.0959 26.2397 90.1441 26.4408 90.2489 26.6126C90.3578 26.7844 90.5066 26.9332 90.6951 27.0589C90.8837 27.1804 91.1016 27.2873 91.3488 27.3795C91.596 27.4674 91.86 27.5429 92.1407 27.6057L93.2973 27.8823C93.8587 28.008 94.3741 28.1756 94.8435 28.3851C95.3128 28.5946 95.7192 28.8523 96.0628 29.1582C96.4064 29.4641 96.6725 29.8245 96.8611 30.2393C97.0538 30.6541 97.1523 31.1297 97.1565 31.6661C97.1523 32.4538 96.9511 33.1368 96.5531 33.7151C96.1592 34.2892 95.5893 34.7354 94.8435 35.0539C94.1018 35.3681 93.2072 35.5253 92.1596 35.5253C91.1204 35.5253 90.2153 35.3661 89.4443 35.0476C88.6775 34.7291 88.0783 34.2577 87.6467 33.6334C87.2193 33.0049 86.9951 32.2276 86.9742 31.3015H89.6077C89.6371 31.7331 89.7607 32.0935 89.9786 32.3826C90.2007 32.6675 90.4961 32.8833 90.8648 33.03C91.2377 33.1725 91.6589 33.2437 92.1282 33.2437C92.5891 33.2437 92.9893 33.1767 93.3287 33.0426C93.6723 32.9085 93.9384 32.722 94.1269 32.4832C94.3155 32.2443 94.4098 31.9699 94.4098 31.6598C94.4098 31.3707 94.3239 31.1276 94.1521 30.9307C93.9845 30.7337 93.7372 30.5661 93.4104 30.4279C93.0877 30.2896 92.6918 30.1639 92.2225 30.0507L90.8208 29.6988C89.7355 29.4348 88.8786 29.022 88.2501 28.4605C87.6216 27.899 87.3094 27.1427 87.3136 26.1915C87.3094 25.4121 87.5168 24.7312 87.9358 24.1488C88.3591 23.5663 88.9394 23.1117 89.6769 22.7849C90.4144 22.458 91.2524 22.2946 92.191 22.2946C93.1464 22.2946 93.9803 22.458 94.6926 22.7849C95.4091 23.1117 95.9664 23.5663 96.3645 24.1488C96.7626 24.7312 96.9679 25.4058 96.9805 26.1727H94.372Z" fill="white"/>
<path d="M98.4577 24.7145V22.4706H109.03V24.7145H105.089V35.343H102.399V24.7145H98.4577Z" fill="white"/>
<path d="M109.764 35.343V22.4706H118.437V24.7145H112.485V27.7817H117.991V30.0256H112.485V33.0991H118.462V35.343H109.764Z" fill="white"/>
<path d="M124.099 35.343H119.535V22.4706H124.136C125.431 22.4706 126.546 22.7283 127.48 23.2437C128.415 23.7549 129.133 24.4903 129.636 25.4498C130.143 26.4094 130.397 27.5575 130.397 28.8942C130.397 30.2351 130.143 31.3874 129.636 32.3512C129.133 33.3149 128.41 34.0545 127.468 34.5699C126.529 35.0853 125.406 35.343 124.099 35.343ZM122.257 33.0111H123.985C124.79 33.0111 125.467 32.8687 126.016 32.5837C126.569 32.2946 126.984 31.8483 127.26 31.2449C127.541 30.6374 127.681 29.8538 127.681 28.8942C127.681 27.943 127.541 27.1657 127.26 26.5624C126.984 25.959 126.571 25.5148 126.022 25.2299C125.473 24.9449 124.796 24.8025 123.992 24.8025H122.257V33.0111Z" fill="white"/>
<path d="M134.704 35.343V22.4706H137.425V27.7817H142.95V22.4706H145.666V35.343H142.95V30.0256H137.425V35.343H134.704Z" fill="white"/>
<path d="M148.844 35.343H145.928L150.371 22.4706H153.879L158.316 35.343H155.4L152.175 25.4121H152.075L148.844 35.343ZM148.662 30.2833H155.55V32.4077H148.662V30.2833Z" fill="white"/>
<path d="M169.845 22.4706V35.343H167.495L161.894 27.2412H161.8V35.343H159.079V22.4706H161.467L167.023 30.5661H167.136V22.4706H169.845Z" fill="white"/>
<path d="M175.022 35.343H170.459V22.4706H175.06C176.355 22.4706 177.47 22.7283 178.404 23.2437C179.338 23.7549 180.057 24.4903 180.56 25.4498C181.067 26.4094 181.32 27.5575 181.32 28.8942C181.32 30.2351 181.067 31.3874 180.56 32.3512C180.057 33.3149 179.334 34.0545 178.391 34.5699C177.453 35.0853 176.33 35.343 175.022 35.343ZM173.181 33.0111H174.909C175.714 33.0111 176.391 32.8687 176.939 32.5837C177.493 32.2946 177.907 31.8483 178.184 31.2449C178.465 30.6374 178.605 29.8538 178.605 28.8942C178.605 27.943 178.465 27.1657 178.184 26.5624C177.907 25.959 177.495 25.5148 176.946 25.2299C176.397 24.9449 175.72 24.8025 174.916 24.8025H173.181V33.0111Z" fill="white"/>
<path d="M189.216 26.1727C189.165 25.6656 188.95 25.2718 188.568 24.991C188.187 24.7103 187.67 24.5699 187.016 24.5699C186.572 24.5699 186.197 24.6327 185.891 24.7585C185.585 24.88 185.35 25.0497 185.187 25.2676C185.028 25.4855 184.948 25.7327 184.948 26.0092C184.94 26.2397 184.988 26.4408 185.093 26.6126C185.202 26.7844 185.35 26.9332 185.539 27.0589C185.727 27.1804 185.945 27.2873 186.192 27.3795C186.44 27.4674 186.704 27.5429 186.984 27.6057L188.141 27.8823C188.702 28.008 189.218 28.1756 189.687 28.3851C190.156 28.5946 190.563 28.8523 190.907 29.1582C191.25 29.4641 191.516 29.8245 191.705 30.2393C191.898 30.6541 191.996 31.1297 192 31.6661C191.996 32.4538 191.795 33.1368 191.397 33.7151C191.003 34.2892 190.433 34.7354 189.687 35.0539C188.945 35.3681 188.051 35.5253 187.003 35.5253C185.964 35.5253 185.059 35.3661 184.288 35.0476C183.521 34.7291 182.922 34.2577 182.49 33.6334C182.063 33.0049 181.839 32.2276 181.818 31.3015H184.451C184.481 31.7331 184.604 32.0935 184.822 32.3826C185.044 32.6675 185.34 32.8833 185.709 33.03C186.081 33.1725 186.503 33.2437 186.972 33.2437C187.433 33.2437 187.833 33.1767 188.172 33.0426C188.516 32.9085 188.782 32.722 188.971 32.4832C189.159 32.2443 189.253 31.9699 189.253 31.6598C189.253 31.3707 189.168 31.1276 188.996 30.9307C188.828 30.7337 188.581 30.5661 188.254 30.4279C187.931 30.2896 187.535 30.1639 187.066 30.0507L185.665 29.6988C184.579 29.4348 183.722 29.022 183.094 28.4605C182.465 27.899 182.153 27.1427 182.157 26.1915C182.153 25.4121 182.361 24.7312 182.78 24.1488C183.203 23.5663 183.783 23.1117 184.521 22.7849C185.258 22.458 186.096 22.2946 187.035 22.2946C187.99 22.2946 188.824 22.458 189.536 22.7849C190.253 23.1117 190.81 23.5663 191.208 24.1488C191.606 24.7312 191.812 25.4058 191.824 26.1727H189.216Z" fill="white"/>
<path d="M60.5631 50.3243H57.5935V41.9473H60.5876C61.4302 41.9473 62.1556 42.115 62.7637 42.4504C63.3718 42.7831 63.8395 43.2616 64.1667 43.8861C64.4966 44.5106 64.6616 45.2577 64.6616 46.1276C64.6616 47.0002 64.4966 47.7501 64.1667 48.3773C63.8395 49.0045 63.3691 49.4858 62.7555 49.8212C62.1447 50.1566 61.4139 50.3243 60.5631 50.3243ZM59.3646 48.8068H60.4894C61.013 48.8068 61.4534 48.7141 61.8106 48.5287C62.1706 48.3405 62.4406 48.0501 62.6205 47.6574C62.8032 47.262 62.8946 46.7521 62.8946 46.1276C62.8946 45.5086 62.8032 45.0028 62.6205 44.6101C62.4406 44.2174 62.172 43.9284 61.8147 43.7429C61.4575 43.5575 61.0171 43.4648 60.4935 43.4648H59.3646V48.8068ZM67.7447 41.9473V50.3243H65.9736V41.9473H67.7447ZM74.7567 44.6551C74.6994 44.456 74.6189 44.2801 74.5153 44.1274C74.4117 43.972 74.2849 43.8411 74.1349 43.7348C73.9877 43.6257 73.8186 43.5425 73.6277 43.4852C73.4396 43.428 73.2309 43.3993 73.0019 43.3993C72.5738 43.3993 72.1974 43.5057 71.8729 43.7184C71.5512 43.9311 71.3003 44.2406 71.1203 44.6469C70.9403 45.0505 70.8503 45.5441 70.8503 46.1276C70.8503 46.7112 70.939 47.2075 71.1162 47.6165C71.2935 48.0255 71.5443 48.3378 71.8689 48.5532C72.1934 48.7659 72.5765 48.8723 73.0182 48.8723C73.4191 48.8723 73.7613 48.8014 74.0449 48.6596C74.3313 48.515 74.5494 48.3119 74.6994 48.0501C74.8521 47.7883 74.9284 47.4788 74.9284 47.1216L75.2884 47.1748H73.1287V45.8413H76.6341V46.8966C76.6341 47.6329 76.4787 48.2655 76.1678 48.7945C75.857 49.3208 75.4288 49.7271 74.8835 50.0135C74.3381 50.2971 73.7136 50.4389 73.0101 50.4389C72.2247 50.4389 71.5348 50.2657 70.9403 49.9194C70.3459 49.5703 69.8823 49.0754 69.5496 48.4346C69.2197 47.791 69.0547 47.0275 69.0547 46.144C69.0547 45.465 69.1528 44.8596 69.3492 44.3279C69.5482 43.7934 69.8264 43.3407 70.1836 42.9699C70.5408 42.599 70.9567 42.3168 71.4312 42.1231C71.9057 41.9295 72.4197 41.8327 72.9733 41.8327C73.4477 41.8327 73.8895 41.9023 74.2985 42.0413C74.7076 42.1777 75.0702 42.3713 75.3866 42.6222C75.7056 42.873 75.966 43.1716 76.1678 43.518C76.3696 43.8616 76.4991 44.2406 76.5564 44.6551H74.7567ZM79.7357 41.9473V50.3243H77.9645V41.9473H79.7357ZM80.8738 43.4075V41.9473H87.7538V43.4075H85.1891V50.3243H83.4385V43.4075H80.8738ZM89.3071 50.3243H87.4092L90.3011 41.9473H92.5835L95.4713 50.3243H93.5734L91.475 43.8616H91.4096L89.3071 50.3243ZM89.1885 47.0316H93.6715V48.4141H89.1885V47.0316ZM96.4796 50.3243V41.9473H98.2507V48.8641H101.842V50.3243H96.4796ZM105.681 50.3243V41.9473H107.452V45.4036H111.047V41.9473H112.814V50.3243H111.047V46.8639H107.452V50.3243H105.681ZM121.973 46.1358C121.973 47.0493 121.8 47.8265 121.453 48.4673C121.11 49.1081 120.641 49.5976 120.046 49.9357C119.454 50.2712 118.789 50.4389 118.05 50.4389C117.306 50.4389 116.638 50.2698 116.046 49.9317C115.454 49.5935 114.986 49.104 114.643 48.4632C114.299 47.8224 114.127 47.0466 114.127 46.1358C114.127 45.2223 114.299 44.4451 114.643 43.8043C114.986 43.1635 115.454 42.6753 116.046 42.3399C116.638 42.0018 117.306 41.8327 118.05 41.8327C118.789 41.8327 119.454 42.0018 120.046 42.3399C120.641 42.6753 121.11 43.1635 121.453 43.8043C121.8 44.4451 121.973 45.2223 121.973 46.1358ZM120.177 46.1358C120.177 45.5441 120.088 45.045 119.911 44.6387C119.737 44.2324 119.49 43.9243 119.171 43.7143C118.852 43.5043 118.478 43.3993 118.05 43.3993C117.622 43.3993 117.248 43.5043 116.929 43.7143C116.61 43.9243 116.362 44.2324 116.185 44.6387C116.01 45.045 115.923 45.5441 115.923 46.1358C115.923 46.7275 116.01 47.2266 116.185 47.6329C116.362 48.0392 116.61 48.3473 116.929 48.5573C117.248 48.7673 117.622 48.8723 118.05 48.8723C118.478 48.8723 118.852 48.7673 119.171 48.5573C119.49 48.3473 119.737 48.0392 119.911 47.6329C120.088 47.2266 120.177 46.7275 120.177 46.1358ZM123.285 41.9473H125.469L127.776 47.5756H127.874L130.181 41.9473H132.365V50.3243H130.647V44.8719H130.578L128.41 50.2834H127.24L125.072 44.8514H125.003V50.3243H123.285V41.9473ZM133.825 50.3243V41.9473H139.469V43.4075H135.596V45.4036H139.179V46.8639H135.596V48.8641H139.486V50.3243H133.825ZM145.422 44.3565C145.389 44.0265 145.249 43.7702 145.001 43.5875C144.752 43.4048 144.416 43.3134 143.99 43.3134C143.701 43.3134 143.457 43.3543 143.258 43.4362C143.059 43.5152 142.906 43.6257 142.8 43.7675C142.696 43.9093 142.644 44.0702 142.644 44.2501C142.639 44.4001 142.67 44.531 142.739 44.6428C142.809 44.7546 142.906 44.8514 143.029 44.9332C143.152 45.0123 143.293 45.0818 143.454 45.1418C143.615 45.1991 143.787 45.2482 143.97 45.2891L144.722 45.4691C145.088 45.5509 145.423 45.66 145.729 45.7963C146.034 45.9326 146.299 46.1003 146.522 46.2994C146.746 46.4985 146.919 46.733 147.042 47.003C147.167 47.2729 147.231 47.5824 147.234 47.9315C147.231 48.4441 147.1 48.8886 146.841 49.2649C146.585 49.6385 146.214 49.9289 145.729 50.1362C145.246 50.3407 144.664 50.443 143.982 50.443C143.306 50.443 142.717 50.3393 142.215 50.1321C141.716 49.9248 141.326 49.6181 141.045 49.2118C140.767 48.8027 140.621 48.2969 140.607 47.6942H142.321C142.34 47.9751 142.421 48.2096 142.563 48.3978C142.707 48.5832 142.899 48.7236 143.139 48.8191C143.382 48.9118 143.656 48.9582 143.962 48.9582C144.262 48.9582 144.522 48.9145 144.743 48.8273C144.966 48.74 145.14 48.6187 145.262 48.4632C145.385 48.3078 145.446 48.1292 145.446 47.9274C145.446 47.7392 145.39 47.5811 145.279 47.4529C145.17 47.3247 145.009 47.2157 144.796 47.1257C144.586 47.0357 144.328 46.9539 144.023 46.8802L143.111 46.6512C142.405 46.4794 141.847 46.2108 141.438 45.8454C141.029 45.48 140.826 44.9878 140.828 44.3688C140.826 43.8616 140.961 43.4184 141.233 43.0394C141.509 42.6603 141.886 42.3645 142.366 42.1518C142.846 41.9391 143.392 41.8327 144.002 41.8327C144.624 41.8327 145.167 41.9391 145.63 42.1518C146.097 42.3645 146.459 42.6603 146.718 43.0394C146.978 43.4184 147.111 43.8575 147.119 44.3565H145.422Z" fill="#90EAE3"/>
<path d="M26.3918 11.5548C22.6765 11.5548 19.1272 12.7869 16.1 14.9915C13.2273 17.084 10.8155 20.0577 9.1706 23.6894C8.99937 24.0575 8.65586 24.1306 8.35282 23.9575L6.11326 22.6596C5.79259 22.4622 5.61824 22.1185 5.82061 21.7005C7.78307 17.3375 10.6775 13.7631 14.1313 11.2464C17.9275 8.4812 22.1679 7.10407 26.5412 7.14429C26.8972 7.13332 27.1327 7.44165 27.1203 7.85113L27.0591 10.882C27.0393 11.3768 26.7757 11.5572 26.3918 11.5548Z" fill="#13D1C3"/>
<path d="M25.824 4.41038C21.0065 4.41038 16.4029 6.00932 12.4769 8.86962C8.71386 11.6117 5.56 15.5164 3.42422 20.2889C3.26336 20.6667 2.93957 20.7946 2.60644 20.607L0.316027 19.2798C-0.0108784 19.058 -0.0689923 18.6875 0.0721477 18.3073C0.0742233 18.3012 0.0762996 18.2951 0.079413 18.289C2.53172 12.7914 6.16504 8.2883 10.5061 5.12576C15.2945 1.63661 20.5478 -0.0720162 26.1198 0.00232476C26.4643 0.00232476 26.7383 0.309439 26.7383 0.734767L26.6781 3.73157C26.6781 4.10937 26.4653 4.41526 26.1322 4.41526L25.8219 4.41038H25.824Z" fill="#13D1C3"/>
</svg>
